<mxfile host="app.diagrams.net" agent="Mozilla/5.0 (Macintosh; Intel Mac OS X 10_15_7) AppleWebKit/537.36 (KHTML, like Gecko) Chrome/131.0.0.0 Safari/537.36" version="26.0.11">
  <diagram name="第 1 页" id="1xTDFKsSoZaOvkxDn3PA">
    <mxGraphModel dx="2074" dy="1155" grid="1" gridSize="10" guides="1" tooltips="1" connect="1" arrows="1" fold="1" page="1" pageScale="1" pageWidth="827" pageHeight="1169" math="0" shadow="0">
      <root>
        <mxCell id="0" />
        <mxCell id="1" parent="0" />
        <mxCell id="WsKtDJIpUT-41A97Po23-1" value="" style="rounded=0;whiteSpace=wrap;html=1;" vertex="1" parent="1">
          <mxGeometry x="1280" y="220" width="360" height="320" as="geometry" />
        </mxCell>
        <mxCell id="WsKtDJIpUT-41A97Po23-2" value="发起者" style="rounded=1;whiteSpace=wrap;html=1;fontSize=12;glass=0;strokeWidth=1;shadow=0;" vertex="1" parent="1">
          <mxGeometry x="360" y="40" width="120" height="40" as="geometry" />
        </mxCell>
        <mxCell id="WsKtDJIpUT-41A97Po23-3" value="发起者 PTCG Pocket" style="rounded=1;whiteSpace=wrap;html=1;fontSize=12;glass=0;strokeWidth=1;shadow=0;" vertex="1" parent="1">
          <mxGeometry x="40" y="40" width="120" height="40" as="geometry" />
        </mxCell>
        <mxCell id="WsKtDJIpUT-41A97Po23-4" value="被发起者" style="rounded=1;whiteSpace=wrap;html=1;fontSize=12;glass=0;strokeWidth=1;shadow=0;" vertex="1" parent="1">
          <mxGeometry x="1000" y="40" width="120" height="40" as="geometry" />
        </mxCell>
        <mxCell id="WsKtDJIpUT-41A97Po23-5" style="edgeStyle=orthogonalEdgeStyle;rounded=0;orthogonalLoop=1;jettySize=auto;html=1;exitX=1;exitY=0.5;exitDx=0;exitDy=0;entryX=0.5;entryY=0;entryDx=0;entryDy=0;" edge="1" parent="1" source="WsKtDJIpUT-41A97Po23-6" target="WsKtDJIpUT-41A97Po23-8">
          <mxGeometry relative="1" as="geometry" />
        </mxCell>
        <mxCell id="WsKtDJIpUT-41A97Po23-6" value="发布交换请求" style="rounded=1;whiteSpace=wrap;html=1;fontSize=12;glass=0;strokeWidth=1;shadow=0;" vertex="1" parent="1">
          <mxGeometry x="360" y="120" width="120" height="40" as="geometry" />
        </mxCell>
        <mxCell id="WsKtDJIpUT-41A97Po23-7" style="edgeStyle=orthogonalEdgeStyle;rounded=0;orthogonalLoop=1;jettySize=auto;html=1;entryX=0.5;entryY=0;entryDx=0;entryDy=0;" edge="1" parent="1" source="WsKtDJIpUT-41A97Po23-8" target="WsKtDJIpUT-41A97Po23-19">
          <mxGeometry relative="1" as="geometry" />
        </mxCell>
        <mxCell id="WsKtDJIpUT-41A97Po23-8" value="接受请求" style="rounded=1;whiteSpace=wrap;html=1;fontSize=12;glass=0;strokeWidth=1;shadow=0;" vertex="1" parent="1">
          <mxGeometry x="1000" y="200" width="120" height="40" as="geometry" />
        </mxCell>
        <mxCell id="WsKtDJIpUT-41A97Po23-9" style="edgeStyle=orthogonalEdgeStyle;rounded=0;orthogonalLoop=1;jettySize=auto;html=1;exitX=0.5;exitY=1;exitDx=0;exitDy=0;entryX=0;entryY=0.5;entryDx=0;entryDy=0;" edge="1" parent="1" source="WsKtDJIpUT-41A97Po23-10" target="WsKtDJIpUT-41A97Po23-11">
          <mxGeometry relative="1" as="geometry" />
        </mxCell>
        <mxCell id="WsKtDJIpUT-41A97Po23-10" value="发起交换，选择送给对方的卡牌" style="rounded=1;whiteSpace=wrap;html=1;fontSize=12;glass=0;strokeWidth=1;shadow=0;" vertex="1" parent="1">
          <mxGeometry x="40" y="780" width="120" height="40" as="geometry" />
        </mxCell>
        <mxCell id="WsKtDJIpUT-41A97Po23-11" value="改变交易状态，提醒被发起者进入游戏选择卡片" style="rounded=1;whiteSpace=wrap;html=1;fontSize=12;glass=0;strokeWidth=1;shadow=0;" vertex="1" parent="1">
          <mxGeometry x="360" y="940" width="120" height="40" as="geometry" />
        </mxCell>
        <mxCell id="WsKtDJIpUT-41A97Po23-12" style="edgeStyle=orthogonalEdgeStyle;rounded=0;orthogonalLoop=1;jettySize=auto;html=1;entryX=0.5;entryY=0;entryDx=0;entryDy=0;" edge="1" parent="1" source="WsKtDJIpUT-41A97Po23-16" target="WsKtDJIpUT-41A97Po23-24">
          <mxGeometry relative="1" as="geometry" />
        </mxCell>
        <mxCell id="WsKtDJIpUT-41A97Po23-13" value="是" style="edgeLabel;html=1;align=center;verticalAlign=middle;resizable=0;points=[];" vertex="1" connectable="0" parent="WsKtDJIpUT-41A97Po23-12">
          <mxGeometry x="-0.425" relative="1" as="geometry">
            <mxPoint x="-118" as="offset" />
          </mxGeometry>
        </mxCell>
        <mxCell id="WsKtDJIpUT-41A97Po23-14" style="edgeStyle=orthogonalEdgeStyle;rounded=0;orthogonalLoop=1;jettySize=auto;html=1;entryX=0;entryY=0.5;entryDx=0;entryDy=0;exitX=0;exitY=0.5;exitDx=0;exitDy=0;" edge="1" parent="1" source="WsKtDJIpUT-41A97Po23-16" target="WsKtDJIpUT-41A97Po23-6">
          <mxGeometry relative="1" as="geometry">
            <Array as="points">
              <mxPoint x="260" y="560" />
              <mxPoint x="260" y="140" />
            </Array>
          </mxGeometry>
        </mxCell>
        <mxCell id="WsKtDJIpUT-41A97Po23-15" value="否" style="edgeLabel;html=1;align=center;verticalAlign=middle;resizable=0;points=[];" vertex="1" connectable="0" parent="WsKtDJIpUT-41A97Po23-14">
          <mxGeometry x="-0.3909" y="-2" relative="1" as="geometry">
            <mxPoint as="offset" />
          </mxGeometry>
        </mxCell>
        <mxCell id="WsKtDJIpUT-41A97Po23-16" value="确认此次交换成立" style="rhombus;whiteSpace=wrap;html=1;" vertex="1" parent="1">
          <mxGeometry x="360" y="520" width="120" height="80" as="geometry" />
        </mxCell>
        <mxCell id="WsKtDJIpUT-41A97Po23-17" value="被发起者 PTCG Pocket" style="rounded=1;whiteSpace=wrap;html=1;fontSize=12;glass=0;strokeWidth=1;shadow=0;" vertex="1" parent="1">
          <mxGeometry x="680" y="40" width="120" height="40" as="geometry" />
        </mxCell>
        <mxCell id="WsKtDJIpUT-41A97Po23-18" style="edgeStyle=orthogonalEdgeStyle;rounded=0;orthogonalLoop=1;jettySize=auto;html=1;entryX=0;entryY=0.5;entryDx=0;entryDy=0;exitX=0.5;exitY=1;exitDx=0;exitDy=0;" edge="1" parent="1" source="WsKtDJIpUT-41A97Po23-19" target="WsKtDJIpUT-41A97Po23-28">
          <mxGeometry relative="1" as="geometry" />
        </mxCell>
        <mxCell id="WsKtDJIpUT-41A97Po23-19" value="添加发起者好友" style="rounded=1;whiteSpace=wrap;html=1;fontSize=12;glass=0;strokeWidth=1;shadow=0;" vertex="1" parent="1">
          <mxGeometry x="680" y="280" width="120" height="40" as="geometry" />
        </mxCell>
        <mxCell id="WsKtDJIpUT-41A97Po23-20" style="edgeStyle=orthogonalEdgeStyle;rounded=0;orthogonalLoop=1;jettySize=auto;html=1;" edge="1" parent="1" source="WsKtDJIpUT-41A97Po23-24" target="WsKtDJIpUT-41A97Po23-10">
          <mxGeometry relative="1" as="geometry" />
        </mxCell>
        <mxCell id="WsKtDJIpUT-41A97Po23-21" value="是" style="edgeLabel;html=1;align=center;verticalAlign=middle;resizable=0;points=[];" vertex="1" connectable="0" parent="WsKtDJIpUT-41A97Po23-20">
          <mxGeometry x="-0.2" y="1" relative="1" as="geometry">
            <mxPoint as="offset" />
          </mxGeometry>
        </mxCell>
        <mxCell id="WsKtDJIpUT-41A97Po23-22" style="edgeStyle=orthogonalEdgeStyle;rounded=0;orthogonalLoop=1;jettySize=auto;html=1;entryX=0.5;entryY=0;entryDx=0;entryDy=0;" edge="1" parent="1" source="WsKtDJIpUT-41A97Po23-24" target="WsKtDJIpUT-41A97Po23-26">
          <mxGeometry relative="1" as="geometry" />
        </mxCell>
        <mxCell id="WsKtDJIpUT-41A97Po23-23" value="否" style="edgeLabel;html=1;align=center;verticalAlign=middle;resizable=0;points=[];" vertex="1" connectable="0" parent="WsKtDJIpUT-41A97Po23-22">
          <mxGeometry x="-0.5" y="1" relative="1" as="geometry">
            <mxPoint as="offset" />
          </mxGeometry>
        </mxCell>
        <mxCell id="WsKtDJIpUT-41A97Po23-24" value="真的收到好友请求" style="rhombus;whiteSpace=wrap;html=1;" vertex="1" parent="1">
          <mxGeometry x="40" y="640" width="120" height="80" as="geometry" />
        </mxCell>
        <mxCell id="WsKtDJIpUT-41A97Po23-25" style="edgeStyle=orthogonalEdgeStyle;rounded=0;orthogonalLoop=1;jettySize=auto;html=1;entryX=0;entryY=0.5;entryDx=0;entryDy=0;exitX=0.5;exitY=1;exitDx=0;exitDy=0;" edge="1" parent="1" source="WsKtDJIpUT-41A97Po23-26" target="WsKtDJIpUT-41A97Po23-27">
          <mxGeometry relative="1" as="geometry" />
        </mxCell>
        <mxCell id="WsKtDJIpUT-41A97Po23-26" value="添加被发起者好友" style="rounded=1;whiteSpace=wrap;html=1;fontSize=12;glass=0;strokeWidth=1;shadow=0;" vertex="1" parent="1">
          <mxGeometry x="200" y="780" width="120" height="40" as="geometry" />
        </mxCell>
        <mxCell id="WsKtDJIpUT-41A97Po23-27" value="提醒被发起者接受好友请求" style="rounded=1;whiteSpace=wrap;html=1;fontSize=12;glass=0;strokeWidth=1;shadow=0;" vertex="1" parent="1">
          <mxGeometry x="360" y="860" width="120" height="40" as="geometry" />
        </mxCell>
        <mxCell id="WsKtDJIpUT-41A97Po23-28" value="提醒发起者接受好友请求" style="rounded=1;whiteSpace=wrap;html=1;fontSize=12;glass=0;strokeWidth=1;shadow=0;" vertex="1" parent="1">
          <mxGeometry x="1000" y="360" width="120" height="40" as="geometry" />
        </mxCell>
        <mxCell id="WsKtDJIpUT-41A97Po23-29" style="edgeStyle=orthogonalEdgeStyle;rounded=0;orthogonalLoop=1;jettySize=auto;html=1;entryX=0.5;entryY=0;entryDx=0;entryDy=0;" edge="1" parent="1" source="WsKtDJIpUT-41A97Po23-30" target="WsKtDJIpUT-41A97Po23-16">
          <mxGeometry relative="1" as="geometry" />
        </mxCell>
        <mxCell id="WsKtDJIpUT-41A97Po23-30" value="收到提醒，请接受好友请求" style="rounded=1;whiteSpace=wrap;html=1;fontSize=12;glass=0;strokeWidth=1;shadow=0;fillColor=#fff2cc;strokeColor=#d6b656;" vertex="1" parent="1">
          <mxGeometry x="360" y="440" width="120" height="40" as="geometry" />
        </mxCell>
        <mxCell id="WsKtDJIpUT-41A97Po23-31" style="edgeStyle=orthogonalEdgeStyle;rounded=0;orthogonalLoop=1;jettySize=auto;html=1;" edge="1" parent="1" source="WsKtDJIpUT-41A97Po23-32">
          <mxGeometry relative="1" as="geometry">
            <mxPoint x="740" y="640" as="targetPoint" />
          </mxGeometry>
        </mxCell>
        <mxCell id="WsKtDJIpUT-41A97Po23-32" value="收到提醒，请接受好友请求" style="rounded=1;whiteSpace=wrap;html=1;fontSize=12;glass=0;strokeWidth=1;shadow=0;fillColor=#fff2cc;strokeColor=#d6b656;" vertex="1" parent="1">
          <mxGeometry x="1000" y="440" width="120" height="40" as="geometry" />
        </mxCell>
        <mxCell id="WsKtDJIpUT-41A97Po23-33" style="edgeStyle=orthogonalEdgeStyle;rounded=0;orthogonalLoop=1;jettySize=auto;html=1;exitX=0.5;exitY=1;exitDx=0;exitDy=0;entryX=0;entryY=0.5;entryDx=0;entryDy=0;" edge="1" parent="1" source="WsKtDJIpUT-41A97Po23-34" target="WsKtDJIpUT-41A97Po23-35">
          <mxGeometry relative="1" as="geometry" />
        </mxCell>
        <mxCell id="WsKtDJIpUT-41A97Po23-34" value="发起交换，选择送给对方的卡牌" style="rounded=1;whiteSpace=wrap;html=1;fontSize=12;glass=0;strokeWidth=1;shadow=0;" vertex="1" parent="1">
          <mxGeometry x="680" y="780" width="120" height="40" as="geometry" />
        </mxCell>
        <mxCell id="WsKtDJIpUT-41A97Po23-35" value="改变交易状态，提醒发起者进入游戏选择卡片" style="rounded=1;whiteSpace=wrap;html=1;fontSize=12;glass=0;strokeWidth=1;shadow=0;" vertex="1" parent="1">
          <mxGeometry x="1000" y="940" width="120" height="40" as="geometry" />
        </mxCell>
        <mxCell id="WsKtDJIpUT-41A97Po23-36" style="edgeStyle=orthogonalEdgeStyle;rounded=0;orthogonalLoop=1;jettySize=auto;html=1;" edge="1" parent="1" source="WsKtDJIpUT-41A97Po23-40" target="WsKtDJIpUT-41A97Po23-34">
          <mxGeometry relative="1" as="geometry" />
        </mxCell>
        <mxCell id="WsKtDJIpUT-41A97Po23-37" value="是" style="edgeLabel;html=1;align=center;verticalAlign=middle;resizable=0;points=[];" vertex="1" connectable="0" parent="WsKtDJIpUT-41A97Po23-36">
          <mxGeometry x="-0.2" y="1" relative="1" as="geometry">
            <mxPoint as="offset" />
          </mxGeometry>
        </mxCell>
        <mxCell id="WsKtDJIpUT-41A97Po23-38" style="edgeStyle=orthogonalEdgeStyle;rounded=0;orthogonalLoop=1;jettySize=auto;html=1;entryX=0;entryY=0.5;entryDx=0;entryDy=0;exitX=0;exitY=0.5;exitDx=0;exitDy=0;" edge="1" parent="1" source="WsKtDJIpUT-41A97Po23-40" target="WsKtDJIpUT-41A97Po23-19">
          <mxGeometry relative="1" as="geometry">
            <Array as="points">
              <mxPoint x="580" y="680" />
              <mxPoint x="580" y="300" />
            </Array>
          </mxGeometry>
        </mxCell>
        <mxCell id="WsKtDJIpUT-41A97Po23-39" value="否" style="edgeLabel;html=1;align=center;verticalAlign=middle;resizable=0;points=[];" vertex="1" connectable="0" parent="WsKtDJIpUT-41A97Po23-38">
          <mxGeometry x="-0.0517" y="2" relative="1" as="geometry">
            <mxPoint as="offset" />
          </mxGeometry>
        </mxCell>
        <mxCell id="WsKtDJIpUT-41A97Po23-40" value="收到好友请求" style="rhombus;whiteSpace=wrap;html=1;" vertex="1" parent="1">
          <mxGeometry x="680" y="640" width="120" height="80" as="geometry" />
        </mxCell>
        <mxCell id="WsKtDJIpUT-41A97Po23-41" style="edgeStyle=orthogonalEdgeStyle;rounded=0;orthogonalLoop=1;jettySize=auto;html=1;entryX=1;entryY=0.5;entryDx=0;entryDy=0;exitX=0.5;exitY=1;exitDx=0;exitDy=0;" edge="1" parent="1" source="WsKtDJIpUT-41A97Po23-42" target="WsKtDJIpUT-41A97Po23-47">
          <mxGeometry relative="1" as="geometry" />
        </mxCell>
        <mxCell id="WsKtDJIpUT-41A97Po23-42" value="收到提醒进入游戏选择卡牌" style="rounded=1;whiteSpace=wrap;html=1;fontSize=12;glass=0;strokeWidth=1;shadow=0;fillColor=#fff2cc;strokeColor=#d6b656;" vertex="1" parent="1">
          <mxGeometry x="360" y="1040" width="120" height="40" as="geometry" />
        </mxCell>
        <mxCell id="WsKtDJIpUT-41A97Po23-43" style="edgeStyle=orthogonalEdgeStyle;rounded=0;orthogonalLoop=1;jettySize=auto;html=1;entryX=1;entryY=0.5;entryDx=0;entryDy=0;exitX=0.5;exitY=1;exitDx=0;exitDy=0;" edge="1" parent="1" source="WsKtDJIpUT-41A97Po23-44" target="WsKtDJIpUT-41A97Po23-52">
          <mxGeometry relative="1" as="geometry" />
        </mxCell>
        <mxCell id="WsKtDJIpUT-41A97Po23-44" value="收到提醒进入游戏选择卡牌" style="rounded=1;whiteSpace=wrap;html=1;fontSize=12;glass=0;strokeWidth=1;shadow=0;fillColor=#fff2cc;strokeColor=#d6b656;" vertex="1" parent="1">
          <mxGeometry x="1000" y="1040" width="120" height="40" as="geometry" />
        </mxCell>
        <mxCell id="WsKtDJIpUT-41A97Po23-45" value="提醒被发起者进入游戏接收卡牌" style="rounded=1;whiteSpace=wrap;html=1;fontSize=12;glass=0;strokeWidth=1;shadow=0;" vertex="1" parent="1">
          <mxGeometry x="360" y="1200" width="120" height="40" as="geometry" />
        </mxCell>
        <mxCell id="WsKtDJIpUT-41A97Po23-46" style="edgeStyle=orthogonalEdgeStyle;rounded=0;orthogonalLoop=1;jettySize=auto;html=1;entryX=0;entryY=0.5;entryDx=0;entryDy=0;exitX=0.5;exitY=1;exitDx=0;exitDy=0;" edge="1" parent="1" source="WsKtDJIpUT-41A97Po23-47" target="WsKtDJIpUT-41A97Po23-45">
          <mxGeometry relative="1" as="geometry" />
        </mxCell>
        <mxCell id="WsKtDJIpUT-41A97Po23-47" value="选择送给对方的卡牌" style="rounded=1;whiteSpace=wrap;html=1;fontSize=12;glass=0;strokeWidth=1;shadow=0;" vertex="1" parent="1">
          <mxGeometry x="40" y="1120" width="120" height="40" as="geometry" />
        </mxCell>
        <mxCell id="WsKtDJIpUT-41A97Po23-48" style="edgeStyle=orthogonalEdgeStyle;rounded=0;orthogonalLoop=1;jettySize=auto;html=1;entryX=1;entryY=0.5;entryDx=0;entryDy=0;exitX=0.5;exitY=1;exitDx=0;exitDy=0;" edge="1" parent="1" source="WsKtDJIpUT-41A97Po23-49" target="WsKtDJIpUT-41A97Po23-55">
          <mxGeometry relative="1" as="geometry" />
        </mxCell>
        <mxCell id="WsKtDJIpUT-41A97Po23-49" value="收到提醒进入游戏接收卡牌" style="rounded=1;whiteSpace=wrap;html=1;fontSize=12;glass=0;strokeWidth=1;shadow=0;fillColor=#fff2cc;strokeColor=#d6b656;" vertex="1" parent="1">
          <mxGeometry x="360" y="1280" width="120" height="40" as="geometry" />
        </mxCell>
        <mxCell id="WsKtDJIpUT-41A97Po23-50" value="提醒发起者进入游戏接收卡牌" style="rounded=1;whiteSpace=wrap;html=1;fontSize=12;glass=0;strokeWidth=1;shadow=0;" vertex="1" parent="1">
          <mxGeometry x="1000" y="1200" width="120" height="40" as="geometry" />
        </mxCell>
        <mxCell id="WsKtDJIpUT-41A97Po23-51" style="edgeStyle=orthogonalEdgeStyle;rounded=0;orthogonalLoop=1;jettySize=auto;html=1;entryX=0;entryY=0.5;entryDx=0;entryDy=0;exitX=0.5;exitY=1;exitDx=0;exitDy=0;" edge="1" parent="1" source="WsKtDJIpUT-41A97Po23-52" target="WsKtDJIpUT-41A97Po23-50">
          <mxGeometry relative="1" as="geometry" />
        </mxCell>
        <mxCell id="WsKtDJIpUT-41A97Po23-52" value="选择送给对方的卡牌" style="rounded=1;whiteSpace=wrap;html=1;fontSize=12;glass=0;strokeWidth=1;shadow=0;" vertex="1" parent="1">
          <mxGeometry x="680" y="1120" width="120" height="40" as="geometry" />
        </mxCell>
        <mxCell id="WsKtDJIpUT-41A97Po23-53" value="把交换置为结束" style="rounded=1;whiteSpace=wrap;html=1;fontSize=12;glass=0;strokeWidth=1;shadow=0;" vertex="1" parent="1">
          <mxGeometry x="360" y="1440" width="120" height="40" as="geometry" />
        </mxCell>
        <mxCell id="WsKtDJIpUT-41A97Po23-54" style="edgeStyle=orthogonalEdgeStyle;rounded=0;orthogonalLoop=1;jettySize=auto;html=1;entryX=0;entryY=0.5;entryDx=0;entryDy=0;exitX=0.5;exitY=1;exitDx=0;exitDy=0;" edge="1" parent="1" source="WsKtDJIpUT-41A97Po23-55" target="WsKtDJIpUT-41A97Po23-53">
          <mxGeometry relative="1" as="geometry" />
        </mxCell>
        <mxCell id="WsKtDJIpUT-41A97Po23-55" value="接收卡牌" style="rounded=1;whiteSpace=wrap;html=1;fontSize=12;glass=0;strokeWidth=1;shadow=0;" vertex="1" parent="1">
          <mxGeometry x="40" y="1360" width="120" height="40" as="geometry" />
        </mxCell>
        <mxCell id="WsKtDJIpUT-41A97Po23-56" style="edgeStyle=orthogonalEdgeStyle;rounded=0;orthogonalLoop=1;jettySize=auto;html=1;entryX=1;entryY=0.5;entryDx=0;entryDy=0;exitX=0.5;exitY=1;exitDx=0;exitDy=0;" edge="1" parent="1" source="WsKtDJIpUT-41A97Po23-57" target="WsKtDJIpUT-41A97Po23-60">
          <mxGeometry relative="1" as="geometry" />
        </mxCell>
        <mxCell id="WsKtDJIpUT-41A97Po23-57" value="收到提醒进入游戏接收卡牌" style="rounded=1;whiteSpace=wrap;html=1;fontSize=12;glass=0;strokeWidth=1;shadow=0;fillColor=#fff2cc;strokeColor=#d6b656;" vertex="1" parent="1">
          <mxGeometry x="1000" y="1280" width="120" height="40" as="geometry" />
        </mxCell>
        <mxCell id="WsKtDJIpUT-41A97Po23-58" value="把交换置为结束" style="rounded=1;whiteSpace=wrap;html=1;fontSize=12;glass=0;strokeWidth=1;shadow=0;" vertex="1" parent="1">
          <mxGeometry x="1000" y="1440" width="120" height="40" as="geometry" />
        </mxCell>
        <mxCell id="WsKtDJIpUT-41A97Po23-59" style="edgeStyle=orthogonalEdgeStyle;rounded=0;orthogonalLoop=1;jettySize=auto;html=1;entryX=0;entryY=0.5;entryDx=0;entryDy=0;exitX=0.5;exitY=1;exitDx=0;exitDy=0;" edge="1" parent="1" source="WsKtDJIpUT-41A97Po23-60" target="WsKtDJIpUT-41A97Po23-58">
          <mxGeometry relative="1" as="geometry" />
        </mxCell>
        <mxCell id="WsKtDJIpUT-41A97Po23-60" value="接收卡牌" style="rounded=1;whiteSpace=wrap;html=1;fontSize=12;glass=0;strokeWidth=1;shadow=0;" vertex="1" parent="1">
          <mxGeometry x="680" y="1360" width="120" height="40" as="geometry" />
        </mxCell>
        <mxCell id="WsKtDJIpUT-41A97Po23-61" value="发起者" style="rounded=1;whiteSpace=wrap;html=1;fontSize=12;glass=0;strokeWidth=1;shadow=0;" vertex="1" parent="1">
          <mxGeometry x="1320" y="40" width="120" height="40" as="geometry" />
        </mxCell>
        <mxCell id="WsKtDJIpUT-41A97Po23-62" value="被发起者" style="rounded=1;whiteSpace=wrap;html=1;fontSize=12;glass=0;strokeWidth=1;shadow=0;" vertex="1" parent="1">
          <mxGeometry x="1480" y="40" width="120" height="40" as="geometry" />
        </mxCell>
        <mxCell id="WsKtDJIpUT-41A97Po23-63" value="发布交换请求" style="rounded=1;whiteSpace=wrap;html=1;fontSize=12;glass=0;strokeWidth=1;shadow=0;" vertex="1" parent="1">
          <mxGeometry x="1320" y="160" width="120" height="40" as="geometry" />
        </mxCell>
        <mxCell id="WsKtDJIpUT-41A97Po23-64" value="交换中，添加好友" style="rounded=1;whiteSpace=wrap;html=1;fontSize=12;glass=0;strokeWidth=1;shadow=0;" vertex="1" parent="1">
          <mxGeometry x="1480" y="240" width="120" height="40" as="geometry" />
        </mxCell>
        <mxCell id="WsKtDJIpUT-41A97Po23-65" value="提议阶段" style="rounded=1;whiteSpace=wrap;html=1;fontSize=12;glass=0;strokeWidth=1;shadow=0;" vertex="1" parent="1">
          <mxGeometry x="1400" y="320" width="120" height="40" as="geometry" />
        </mxCell>
        <mxCell id="WsKtDJIpUT-41A97Po23-66" value="回应阶段" style="rounded=1;whiteSpace=wrap;html=1;fontSize=12;glass=0;strokeWidth=1;shadow=0;" vertex="1" parent="1">
          <mxGeometry x="1400" y="400" width="120" height="40" as="geometry" />
        </mxCell>
        <mxCell id="WsKtDJIpUT-41A97Po23-67" value="确认阶段" style="rounded=1;whiteSpace=wrap;html=1;fontSize=12;glass=0;strokeWidth=1;shadow=0;" vertex="1" parent="1">
          <mxGeometry x="1400" y="480" width="120" height="40" as="geometry" />
        </mxCell>
        <mxCell id="WsKtDJIpUT-41A97Po23-68" value="请求完成" style="rounded=1;whiteSpace=wrap;html=1;fontSize=12;glass=0;strokeWidth=1;shadow=0;" vertex="1" parent="1">
          <mxGeometry x="1400" y="560" width="120" height="40" as="geometry" />
        </mxCell>
        <mxCell id="WsKtDJIpUT-41A97Po23-69" value="消息限制：用户授权一次发一次" style="text;html=1;align=center;verticalAlign=middle;resizable=0;points=[];autosize=1;strokeColor=none;fillColor=none;" vertex="1" parent="1">
          <mxGeometry x="1280" y="840" width="190" height="30" as="geometry" />
        </mxCell>
        <mxCell id="WsKtDJIpUT-41A97Po23-70" value="收到提醒交换时间过长，交换状态设置为关闭" style="rounded=1;whiteSpace=wrap;html=1;fontSize=12;glass=0;strokeWidth=1;shadow=0;fillColor=#fff2cc;strokeColor=#d6b656;" vertex="1" parent="1">
          <mxGeometry x="360" y="1520" width="120" height="40" as="geometry" />
        </mxCell>
        <mxCell id="WsKtDJIpUT-41A97Po23-71" value="收到提醒交换时间过长，可进行其它交换" style="rounded=1;whiteSpace=wrap;html=1;fontSize=12;glass=0;strokeWidth=1;shadow=0;fillColor=#fff2cc;strokeColor=#d6b656;" vertex="1" parent="1">
          <mxGeometry x="1000" y="1520" width="120" height="40" as="geometry" />
        </mxCell>
        <mxCell id="WsKtDJIpUT-41A97Po23-72" value="请求关闭" style="rounded=1;whiteSpace=wrap;html=1;fontSize=12;glass=0;strokeWidth=1;shadow=0;" vertex="1" parent="1">
          <mxGeometry x="1400" y="640" width="120" height="40" as="geometry" />
        </mxCell>
        <mxCell id="WsKtDJIpUT-41A97Po23-73" value="等待时间过长，主动取消交换" style="rounded=1;whiteSpace=wrap;html=1;fontSize=12;glass=0;strokeWidth=1;shadow=0;" vertex="1" parent="1">
          <mxGeometry x="1000" y="1600" width="120" height="40" as="geometry" />
        </mxCell>
        <mxCell id="WsKtDJIpUT-41A97Po23-74" value="等待时间过长，主动取消交换" style="rounded=1;whiteSpace=wrap;html=1;fontSize=12;glass=0;strokeWidth=1;shadow=0;" vertex="1" parent="1">
          <mxGeometry x="360" y="1600" width="120" height="40" as="geometry" />
        </mxCell>
        <mxCell id="WsKtDJIpUT-41A97Po23-75" value="状态未发生变化时间过长，交换自动关闭" style="rounded=1;whiteSpace=wrap;html=1;fontSize=12;glass=0;strokeWidth=1;shadow=0;" vertex="1" parent="1">
          <mxGeometry x="360" y="1680" width="120" height="40" as="geometry" />
        </mxCell>
        <mxCell id="WsKtDJIpUT-41A97Po23-76" value="状态未发生变化时间过长，交换自动关闭" style="rounded=1;whiteSpace=wrap;html=1;fontSize=12;glass=0;strokeWidth=1;shadow=0;" vertex="1" parent="1">
          <mxGeometry x="1000" y="1680" width="120" height="40" as="geometry" />
        </mxCell>
        <mxCell id="WsKtDJIpUT-41A97Po23-77" value="请求取消" style="rounded=1;whiteSpace=wrap;html=1;fontSize=12;glass=0;strokeWidth=1;shadow=0;" vertex="1" parent="1">
          <mxGeometry x="1400" y="720" width="120" height="40" as="geometry" />
        </mxCell>
        <mxCell id="WsKtDJIpUT-41A97Po23-78" value="这个阶段不能进行其它交换" style="text;html=1;align=center;verticalAlign=middle;resizable=0;points=[];autosize=1;strokeColor=none;fillColor=none;" vertex="1" parent="1">
          <mxGeometry x="1290" y="230" width="170" height="30" as="geometry" />
        </mxCell>
      </root>
    </mxGraphModel>
  </diagram>
</mxfile>
